<?xml version="1.0" encoding="UTF-8" standalone="no"?><!DOCTYPE svg PUBLIC "-//W3C//DTD SVG 1.1//EN" "http://www.w3.org/Graphics/SVG/1.1/DTD/svg11.dtd"><svg width="100%" height="100%" viewBox="0 0 48 48" version="1.1" xmlns="http://www.w3.org/2000/svg" xmlns:xlink="http://www.w3.org/1999/xlink" xml:space="preserve" xmlns:serif="http://www.serif.com/" style="fill-rule:evenodd;clip-rule:evenodd;stroke-linejoin:round;stroke-miterlimit:2;"><path d="M23.998,0c-13.251,0 -23.998,10.745 -23.998,24.001c-0,10.603 6.876,19.598 16.413,22.772c1.201,0.221 1.638,-0.52 1.638,-1.157c0,-0.57 -0.02,-2.079 -0.032,-4.081c-6.676,1.45 -8.084,-3.218 -8.084,-3.218c-1.092,-2.773 -2.666,-3.511 -2.666,-3.511c-2.179,-1.488 0.165,-1.458 0.165,-1.458c2.409,0.169 3.676,2.473 3.676,2.473c2.141,3.668 5.618,2.608 6.986,1.994c0.218,-1.55 0.838,-2.608 1.523,-3.208c-5.329,-0.605 -10.932,-2.665 -10.932,-11.862c-0,-2.619 0.935,-4.763 2.471,-6.44c-0.248,-0.607 -1.072,-3.048 0.235,-6.351c0,-0 2.014,-0.645 6.599,2.46c1.914,-0.533 3.968,-0.798 6.009,-0.808c2.039,0.01 4.091,0.275 6.008,0.808c4.582,-3.105 6.593,-2.46 6.593,-2.46c1.31,3.303 0.486,5.744 0.24,6.351c1.539,1.677 2.467,3.821 2.467,6.44c-0,9.221 -5.612,11.249 -10.957,11.843c0.86,0.741 1.628,2.206 1.628,4.444c-0,3.209 -0.03,5.797 -0.03,6.584c0,0.643 0.433,1.389 1.65,1.155c9.53,-3.181 16.4,-12.17 16.4,-22.77c0,-13.256 -10.747,-24.001 -24.002,-24.001Z" style="fill:#000;"/></svg>
