<?xml version="1.0" encoding="UTF-8" standalone="no"?><!DOCTYPE svg PUBLIC "-//W3C//DTD SVG 1.1//EN" "http://www.w3.org/Graphics/SVG/1.1/DTD/svg11.dtd"><svg width="100%" height="100%" viewBox="0 0 64 64" version="1.1" xmlns="http://www.w3.org/2000/svg" xmlns:xlink="http://www.w3.org/1999/xlink" xml:space="preserve" xmlns:serif="http://www.serif.com/" style="fill-rule:evenodd;clip-rule:evenodd;stroke-linejoin:round;stroke-miterlimit:2;"><path d="M60.578,38.367c-0.877,4.515 -7.86,9.456 -15.878,10.413c-4.182,0.499 -8.299,0.958 -12.689,0.757c-7.18,-0.329 -12.845,-1.714 -12.845,-1.714c-0,0.699 0.043,1.364 0.129,1.987c0.933,7.085 7.026,7.51 12.797,7.708c5.825,0.199 11.012,-1.437 11.012,-1.437l0.239,5.266c0,0 -4.074,2.188 -11.332,2.591c-4.003,0.22 -8.972,-0.101 -14.76,-1.633c-12.553,-3.323 -14.712,-16.704 -15.042,-30.281c-0.101,-4.031 -0.039,-7.833 -0.039,-11.012c-0,-13.883 9.096,-17.953 9.096,-17.953c4.587,-2.106 12.457,-2.992 20.64,-3.059l0.201,0c8.182,0.067 16.057,0.953 20.644,3.059c-0,0 9.096,4.07 9.096,17.953c-0,0 0.114,10.244 -1.269,17.355Zm-9.461,-16.278l0,16.811l-6.66,-0l0,-16.317c0,-3.439 -1.447,-5.185 -4.342,-5.185c-3.2,0 -4.804,2.071 -4.804,6.166l-0,8.931l-6.621,0l-0,-8.931c-0,-4.095 -1.605,-6.166 -4.805,-6.166c-2.895,0 -4.342,1.746 -4.342,5.185l-0,16.317l-6.66,-0l-0,-16.811c-0,-3.435 0.875,-6.166 2.632,-8.186c1.812,-2.019 4.185,-3.055 7.131,-3.055c3.408,0 5.989,1.31 7.695,3.93l1.659,2.781l1.659,-2.781c1.706,-2.62 4.287,-3.93 7.696,-3.93c2.945,0 5.318,1.036 7.131,3.055c1.756,2.02 2.631,4.751 2.631,8.186Z" style="fill:#fff;"/></svg>