<svg viewBox="0 0 1024 1024" xmlns="http://www.w3.org/2000/svg" xml:space="preserve" style="fill-rule:evenodd;clip-rule:evenodd;stroke-linejoin:round;stroke-miterlimit:2"><path d="M0 0h1024v1024H0z"/><circle cx="1011" cy="673" r="12.5" style="fill:#3993dd"/><circle cx="814" cy="805" r="12.5" style="fill:#d33f49"/><circle cx="290" cy="226" r="12.5" style="fill:#fb8b24"/><circle cx="712" cy="470" r="12.5" style="fill:#3993dd"/><circle cx="418" cy="697" r="12.5" style="fill:#d33f49"/><circle cx="244" cy="354" r="12.5" style="fill:#fb8b24"/><circle cx="237" cy="174" r="12.5" style="fill:#3993dd"/><circle cx="421" cy="122" r="12.5" style="fill:#d33f49"/><circle cx="331" cy="975" r="12.5" style="fill:#fb8b24"/><circle cx="773" cy="861" r="12.5" style="fill:#d33f49"/><circle cx="598" cy="124" r="12.5" style="fill:#d33f49"/><circle cx="424" cy="493" r="12.5" style="fill:#fb8b24"/><circle cx="457" cy="261" r="12.5" style="fill:#3993dd"/><circle cx="921" cy="329" r="12.5" style="fill:#d33f49"/><circle cx="89" cy="609" r="12.5" style="fill:#fb8b24"/><circle cx="73" cy="293" r="12.5" style="fill:#fb8b24"/><circle cx="809" cy="297" r="12.5" style="fill:#d33f49"/><circle cx="916" cy="868" r="12.5" style="fill:#3993dd"/><circle cx="940" cy="217" r="12.5" style="fill:#fb8b24"/><circle cx="-10" cy="851" r="12.5" style="fill:#3993dd"/><circle cx="558" cy="1004" r="12.5" style="fill:#fb8b24"/><circle cx="912" cy="677" r="12.5" style="fill:#3993dd"/><circle cx="656" cy="691" r="12.5" style="fill:#d33f49"/><circle cx="693" cy="877" r="12.5" style="fill:#fb8b24"/><circle cx="774" cy="331" r="12.5" style="fill:#3993dd"/><circle cx="116" cy="289" r="12.5" style="fill:#d33f49"/><circle cx="974" cy="287" r="12.5" style="fill:#fb8b24"/><circle cx="800" cy="1021" r="12.5" style="fill:#3993dd"/><circle cx="100" cy="647" r="12.5" style="fill:#3993dd"/><circle cx="849" cy="688" r="12.5" style="fill:#d33f49"/><circle cx="153" cy="-12" r="12.5" style="fill:#d33f49"/><circle cx="405" cy="934" r="12.5" style="fill:#fb8b24"/><circle cx="499" cy="263" r="12.5" style="fill:#fb8b24"/><circle cx="776" cy="580" r="12.5" style="fill:#3993dd"/><circle cx="871" cy="971" r="12.5" style="fill:#3993dd"/><circle cx="479" cy="301" r="12.5" style="fill:#d33f49"/><circle cx="22" cy="660" r="12.5" style="fill:#fb8b24"/><circle cx="617" cy="738" r="12.5" style="fill:#d33f49"/><circle cx="306" cy="741" r="12.5" style="fill:#3993dd"/><circle cx="429" cy="781" r="12.5" style="fill:#d33f49"/><circle cx="166" cy="779" r="12.5" style="fill:#fb8b24"/><circle cx="440" cy="299" r="12.5" style="fill:#3993dd"/><circle cx="798" cy="96" r="12.5" style="fill:#fb8b24"/><circle cx="374" cy="424" r="12.5" style="fill:#d33f49"/><circle cx="478" cy="377" r="12.5" style="fill:#3993dd"/><circle cx="358" cy="464" r="12.5" style="fill:#fb8b24"/><circle cx="61" cy="428" r="12.5" style="fill:#3993dd"/><circle cx="554" cy="582" r="12.5" style="fill:#d33f49"/><circle cx="740" cy="203" r="12.5" style="fill:#d33f49"/><circle cx="800" cy="256" r="12.5" style="fill:#fb8b24"/><circle cx="871" cy="135" r="12.5" style="fill:#3993dd"/><circle cx="219" cy="581" r="12.5" style="fill:#fb8b24"/><circle cx="53" cy="241" r="12.5" style="fill:#3993dd"/><circle cx="713" cy="392" r="12.5" style="fill:#d33f49"/><circle cx="700" cy="-11" r="12.5" style="fill:#fb8b24"/><circle cx="504" cy="520" r="12.5" style="fill:#d33f49"/><circle cx="717" cy="991" r="12.5" style="fill:#3993dd"/><circle cx="358" cy="837" r="12.5" style="fill:#fb8b24"/><circle cx="33" cy="743" r="12.5" style="fill:#fb8b24"/><circle cx="760" cy="84" r="12.5" style="fill:#3993dd"/><circle cx="703" cy="593" r="12.5" style="fill:#fb8b24"/><circle cx="534" cy="71" r="12.5" style="fill:#3993dd"/><circle cx="198" cy="1014" r="12.5" style="fill:#d33f49"/><circle cx="132" cy="197" r="12.5" style="fill:#fb8b24"/><circle cx="325" cy="357" r="12.5" style="fill:#d33f49"/><circle cx="473" cy="636" r="12.5" style="fill:#fb8b24"/><circle cx="366" cy="955" r="12.5" style="fill:#d33f49"/><circle cx="977" cy="692" r="12.5" style="fill:#3993dd"/><circle cx="770" cy="900" r="12.5" style="fill:#fb8b24"/><circle cx="359" cy="1002" r="12.5" style="fill:#d33f49"/><circle cx="949" cy="531" r="12.5" style="fill:#fb8b24"/><circle cx="986" cy="1019" r="12.5" style="fill:#d33f49"/><circle cx="189" cy="249" r="12.5" style="fill:#fb8b24"/><circle cx="414" cy="265" r="12.5" style="fill:#3993dd"/><circle cx="671" cy="464" r="12.5" style="fill:#d33f49"/><circle cx="-1" cy="585" r="12.5" style="fill:#fb8b24"/><circle cx="655" cy="535" r="12.5" style="fill:#d33f49"/><circle cx="983" cy="68" r="12.5" style="fill:#fb8b24"/><circle cx="253" cy="957" r="12.5" style="fill:#d33f49"/><circle cx="652" cy="234" r="12.5" style="fill:#fb8b24"/><circle cx="712" cy="633" r="12.5" style="fill:#3993dd"/><circle cx="456" cy="53" r="12.5" style="fill:#d33f49"/><circle cx="624" cy="817" r="12.5" style="fill:#fb8b24"/><circle cx="640" cy="979" r="12.5" style="fill:#3993dd"/><circle cx="508" cy="848" r="12.5" style="fill:#d33f49"/><circle cx="332" cy="318" r="12.5" style="fill:#fb8b24"/><circle cx="218" cy="8" r="12.5" style="fill:#3993dd"/><circle cx="170" cy="86" r="12.5" style="fill:#d33f49"/><circle cx="52" cy="109" r="12.5" style="fill:#fb8b24"/><circle cx="983" cy="849" r="12.5" style="fill:#d33f49"/><circle cx="685" cy="258" r="12.5" style="fill:#fb8b24"/><circle cx="718" cy="950" r="12.5" style="fill:#3993dd"/><circle cx="-2" cy="282" r="12.5" style="fill:#d33f49"/><circle cx="471" cy="596" r="12.5" style="fill:#fb8b24"/><circle cx="811" cy="854" r="12.5" style="fill:#3993dd"/><circle cx="529" cy="1030" r="12.5" style="fill:#d33f49"/><circle cx="306" cy="858" r="12.5" style="fill:#fb8b24"/><circle cx="209" cy="508" r="12.5" style="fill:#3993dd"/><circle cx="521" cy="383" r="12.5" style="fill:#fb8b24"/><circle cx="956" cy="802" r="12.5" style="fill:#d33f49"/><circle cx="956" cy="884" r="12.5" style="fill:#fb8b24"/><circle cx="864" cy="45" r="12.5" style="fill:#3993dd"/><circle cx="490" cy="560" r="12.5" style="fill:#d33f49"/><circle cx="37" cy="1019" r="12.5" style="fill:#fb8b24"/><circle cx="351" cy="387" r="12.5" style="fill:#3993dd"/><circle cx="205" cy="792" r="12.5" style="fill:#3993dd"/><circle cx="227" cy="543" r="12.5" style="fill:#fb8b24"/><circle cx="881" cy="174" r="12.5" style="fill:#3993dd"/><circle cx="83" cy="5" r="12.5" style="fill:#d33f49"/><circle cx="702" cy="792" r="12.5" style="fill:#d33f49"/><circle cx="786" cy="53" r="12.5" style="fill:#fb8b24"/><circle cx="781" cy="468" r="12.5" style="fill:#d33f49"/><circle cx="760" cy="539" r="12.5" style="fill:#fb8b24"/><circle cx="539" cy="265" r="12.5" style="fill:#3993dd"/><circle cx="473" cy="881" r="12.5" style="fill:#d33f49"/><circle cx="383" cy="502" r="12.5" style="fill:#3993dd"/><circle cx="487" cy="150" r="12.5" style="fill:#d33f49"/><circle cx="658" cy="649" r="12.5" style="fill:#3993dd"/><circle cx="896" cy="426" r="12.5" style="fill:#d33f49"/><circle cx="654" cy="361" r="12.5" style="fill:#fb8b24"/><circle cx="465" cy="999" r="12.5" style="fill:#3993dd"/><circle cx="-11" cy="346" r="12.5" style="fill:#d33f49"/><circle cx="284" cy="620" r="12.5" style="fill:#fb8b24"/><circle cx="180" cy="824" r="12.5" style="fill:#3993dd"/><circle cx="923" cy="911" r="12.5" style="fill:#d33f49"/><circle cx="876" cy="808" r="12.5" style="fill:#fb8b24"/><circle cx="830" cy="74" r="12.5" style="fill:#d33f49"/><circle cx="531" cy="553" r="12.5" style="fill:#fb8b24"/><circle cx="658" cy="577" r="12.5" style="fill:#3993dd"/><circle cx="518" cy="304" r="12.5" style="fill:#fb8b24"/><circle cx="328" cy="934" r="12.5" style="fill:#3993dd"/><circle cx="397" cy="977" r="12.5" style="fill:#d33f49"/><circle cx="936" cy="6" r="12.5" style="fill:#fb8b24"/><circle cx="969" cy="977" r="12.5" style="fill:#d33f49"/><circle cx="1035" cy="50" r="12.5" style="fill:#fb8b24"/><circle cx="132" cy="246" r="12.5" style="fill:#3993dd"/><circle cx="869" cy="396" r="12.5" style="fill:#fb8b24"/><circle cx="447" cy="564" r="12.5" style="fill:#d33f49"/><circle cx="289" cy="185" r="12.5" style="fill:#fb8b24"/><circle cx="7" cy="993" r="12.5" style="fill:#3993dd"/><circle cx="914" cy="144" r="12.5" style="fill:#fb8b24"/><circle cx="945" cy="841" r="12.5" style="fill:#3993dd"/><circle cx="650" cy="74" r="12.5" style="fill:#d33f49"/><circle cx="255" cy="513" r="12.5" style="fill:#fb8b24"/><circle cx="947" cy="942" r="12.5" style="fill:#3993dd"/><circle cx="1008" cy="307" r="12.5" style="fill:#fb8b24"/><circle cx="133" cy="999" r="12.5" style="fill:#3993dd"/><circle cx="194" cy="289" r="12.5" style="fill:#d33f49"/><circle cy="95" r="12.5" style="fill:#3993dd"/><circle cx="645" cy="935" r="12.5" style="fill:#fb8b24"/><circle cx="227" cy="86" r="12.5" style="fill:#d33f49"/><circle cx="675" cy="396" r="12.5" style="fill:#fb8b24"/><circle cx="747" cy="608" r="12.5" style="fill:#3993dd"/><circle cx="721" cy="238" r="12.5" style="fill:#d33f49"/><circle cx="397" cy="460" r="12.5" style="fill:#3993dd"/><circle cx="368" cy="590" r="12.5" style="fill:#d33f49"/><circle cx="389" cy="767" r="12.5" style="fill:#fb8b24"/><circle cx="981" cy="-4" r="12.5" style="fill:#3993dd"/><circle cy="455" r="12.5" style="fill:#d33f49"/><circle cx="730" cy="676" r="12.5" style="fill:#d33f49"/><circle cx="816" cy="381" r="12.5" style="fill:#d33f49"/><circle cx="37" cy="276" r="12.5" style="fill:#3993dd"/><circle cx="378" cy="52" r="12.5" style="fill:#d33f49"/><circle cx="745" cy="491" r="12.5" style="fill:#fb8b24"/><circle cx="238" cy="125" r="12.5" style="fill:#d33f49"/><circle cx="1011" cy="190" r="12.5" style="fill:#fb8b24"/><circle cx="151" cy="572" r="12.5" style="fill:#3993dd"/><circle cx="156" cy="362" r="12.5" style="fill:#d33f49"/><circle cx="111" cy="934" r="12.5" style="fill:#3993dd"/><circle cx="42" cy="600" r="12.5" style="fill:#d33f49"/><circle cx="1020" cy="759" r="12.5" style="fill:#fb8b24"/><circle cx="688" cy="505" r="12.5" style="fill:#3993dd"/><circle cx="587" cy="834" r="12.5" style="fill:#d33f49"/><circle cx="888" cy="768" r="12.5" style="fill:#fb8b24"/><circle cx="580" cy="714" r="12.5" style="fill:#3993dd"/><circle cx="638" cy="1017" r="12.5" style="fill:#fb8b24"/><circle cx="167" cy="899" r="12.5" style="fill:#3993dd"/><circle cx="978" cy="919" r="12.5" style="fill:#fb8b24"/><circle cx="996" cy="150" r="12.5" style="fill:#d33f49"/><circle cx="618" cy="905" r="12.5" style="fill:#fb8b24"/><circle cx="604" cy="164" r="12.5" style="fill:#3993dd"/><circle cx="218" cy="671" r="12.5" style="fill:#d33f49"/><circle cx="545" cy="186" r="12.5" style="fill:#3993dd"/><circle cx="1000" cy="885" r="12.5" style="fill:#d33f49"/><circle cx="233" cy="278" r="12.5" style="fill:#fb8b24"/><circle cx="548" cy="816" r="12.5" style="fill:#3993dd"/><circle cx="998" cy="426" r="12.5" style="fill:#fb8b24"/><circle cx="578" cy="754" r="12.5" style="fill:#d33f49"/><circle cx="328" cy="193" r="12.5" style="fill:#fb8b24"/><circle cx="136" cy="324" r="12.5" style="fill:#3993dd"/><circle cx="860" cy="738" r="12.5" style="fill:#3993dd"/><circle cx="779" cy="374" r="12.5" style="fill:#fb8b24"/><circle cx="847" cy="876" r="12.5" style="fill:#d33f49"/><circle cx="512" cy="888" r="12.5" style="fill:#fb8b24"/><circle cx="798" cy="138" r="12.5" style="fill:#3993dd"/><circle cx="497" cy="723" r="12.5" style="fill:#3993dd"/><circle cx="779" cy="777" r="12.5" style="fill:#d33f49"/><circle cx="543" cy="933" r="12.5" style="fill:#fb8b24"/><circle cx="357" cy="223" r="12.5" style="fill:#3993dd"/><circle cx="502" cy="766" r="12.5" style="fill:#3993dd"/><circle cx="834" cy="476" r="12.5" style="fill:#fb8b24"/><circle cx="671" cy="615" r="12.5" style="fill:#3993dd"/><circle cx="628" cy="609" r="12.5" style="fill:#d33f49"/><circle cx="1019" cy="345" r="12.5" style="fill:#fb8b24"/><circle cx="126" cy="17" r="12.5" style="fill:#d33f49"/><circle cx="1032" cy="616" r="12.5" style="fill:#fb8b24"/><circle cx="907" cy="106" r="12.5" style="fill:#3993dd"/><circle cx="23" cy="175" r="12.5" style="fill:#3993dd"/><circle cx="148" cy="470" r="12.5" style="fill:#fb8b24"/><circle cx="16" cy="814" r="12.5" style="fill:#3993dd"/><circle cx="543" cy="702" r="12.5" style="fill:#d33f49"/><circle cx="834" cy="121" r="12.5" style="fill:#fb8b24"/><circle cx="760" cy="124" r="12.5" style="fill:#3993dd"/><circle cx="354" cy="795" r="12.5" style="fill:#d33f49"/><circle cx="584" cy="924" r="12.5" style="fill:#fb8b24"/><circle cx="995" cy="638" r="12.5" style="fill:#3993dd"/><circle cx="931" cy="291" r="12.5" style="fill:#d33f49"/><circle cx="252" cy="-10" r="12.5" style="fill:#fb8b24"/><circle cx="679" cy="962" r="12.5" style="fill:#3993dd"/><circle cx="791" cy="175" r="12.5" style="fill:#d33f49"/><circle cx="-4" cy="495" r="12.5" style="fill:#d33f49"/><circle cx="194" cy="748" r="12.5" style="fill:#fb8b24"/><circle cx="288" cy="431" r="12.5" style="fill:#fb8b24"/><circle cx="549" cy="621" r="12.5" style="fill:#d33f49"/><circle cx="881" cy="850" r="12.5" style="fill:#3993dd"/><circle cx="930" cy="407" r="12.5" style="fill:#d33f49"/><circle cx="264" cy="71" r="12.5" style="fill:#fb8b24"/><circle cx="723" cy="1029" r="12.5" style="fill:#3993dd"/><circle cx="438" cy="453" r="12.5" style="fill:#d33f49"/><circle cx="273" cy="771" r="12.5" style="fill:#3993dd"/><circle cx="548" cy="477" r="12.5" style="fill:#fb8b24"/><circle cx="889" cy="936" r="12.5" style="fill:#3993dd"/><circle cx="226" cy="988" r="12.5" style="fill:#d33f49"/><circle cx="35" cy="924" r="12.5" style="fill:#3993dd"/><circle cx="734" cy="13" r="12.5" style="fill:#fb8b24"/><circle cx="615" cy="433" r="12.5" style="fill:#fb8b24"/><circle cx="690" cy="214" r="12.5" style="fill:#d33f49"/><circle cx="118" cy="492" r="12.5" style="fill:#fb8b24"/><circle cx="451" cy="339" r="12.5" style="fill:#d33f49"/><circle cx="525" cy="444" r="12.5" style="fill:#fb8b24"/><circle cx="262" cy="846" r="12.5" style="fill:#d33f49"/><circle cx="1029" cy="123" r="12.5" style="fill:#fb8b24"/><circle cx="994" cy="596" r="12.5" style="fill:#d33f49"/><circle cx="76" cy="493" r="12.5" style="fill:#fb8b24"/><circle cx="323" cy="241" r="12.5" style="fill:#3993dd"/><circle cx="438" cy="226" r="12.5" style="fill:#d33f49"/><circle cx="801" cy="936" r="12.5" style="fill:#fb8b24"/><circle cx="948" cy="101" r="12.5" style="fill:#3993dd"/><circle cx="585" cy="495" r="12.5" style="fill:#3993dd"/><circle cx="90" cy="257" r="12.5" style="fill:#d33f49"/><circle cx="8" cy="623" r="12.5" style="fill:#d33f49"/><circle cx="744" cy="754" r="12.5" style="fill:#3993dd"/><circle cx="-5" cy="927" r="12.5" style="fill:#d33f49"/><circle cx="167" cy="628" r="12.5" style="fill:#3993dd"/><circle cx="1019" cy="85" r="12.5" style="fill:#d33f49"/><circle cx="752" cy="165" r="12.5" style="fill:#fb8b24"/><circle cx="76" cy="752" r="12.5" style="fill:#3993dd"/><circle cx="587" cy="24" r="12.5" style="fill:#d33f49"/><circle cx="99" cy="100" r="12.5" style="fill:#3993dd"/><circle cx="969" cy="397" r="12.5" style="fill:#d33f49"/><circle cx="28" cy="962" r="12.5" style="fill:#fb8b24"/><circle cx="547" cy="661" r="12.5" style="fill:#3993dd"/><circle cx="439" cy="11" r="12.5" style="fill:#d33f49"/><circle cx="941" cy="365" r="12.5" style="fill:#fb8b24"/><circle cx="875" cy="250" r="12.5" style="fill:#3993dd"/><circle cx="94" cy="177" r="12.5" style="fill:#d33f49"/><circle cx="31" cy="699" r="12.5" style="fill:#3993dd"/><circle cx="570" cy="60" r="12.5" style="fill:#fb8b24"/><circle cx="741" cy="794" r="12.5" style="fill:#3993dd"/><circle cx="619" cy="471" r="12.5" style="fill:#d33f49"/><circle cx="435" cy="379" r="12.5" style="fill:#3993dd"/><circle cx="536" cy="739" r="12.5" style="fill:#fb8b24"/><circle cx="864" cy="93" r="12.5" style="fill:#3993dd"/><circle cx="920" cy="639" r="12.5" style="fill:#d33f49"/><circle cx="847" cy="780" r="12.5" style="fill:#fb8b24"/><circle cx="172" cy="938" r="12.5" style="fill:#3993dd"/><circle cx="191" cy="468" r="12.5" style="fill:#d33f49"/><circle cx="592" cy="587" r="12.5" style="fill:#fb8b24"/><circle cx="867" cy="1018" r="12.5" style="fill:#3993dd"/><circle cx="824" cy="581" r="12.5" style="fill:#d33f49"/><circle cx="685" cy="920" r="12.5" style="fill:#3993dd"/><circle cx="1031" cy="795" r="12.5" style="fill:#d33f49"/><circle cx="304" cy="539" r="12.5" style="fill:#fb8b24"/><circle cx="70" cy="715" r="12.5" style="fill:#d33f49"/><circle cx="601" cy="85" r="12.5" style="fill:#d33f49"/><circle cx="821" cy="512" r="12.5" style="fill:#fb8b24"/><circle cx="560" cy="105" r="12.5" style="fill:#3993dd"/><circle cx="919" cy="598" r="12.5" style="fill:#d33f49"/><circle cx="813" cy="759" r="12.5" style="fill:#fb8b24"/><circle cx="630" cy="198" r="12.5" style="fill:#3993dd"/><circle cx="963" cy="324" r="12.5" style="fill:#d33f49"/><circle cx="66" cy="674" r="12.5" style="fill:#fb8b24"/><circle cx="334" cy="276" r="12.5" style="fill:#3993dd"/><circle cx="353" cy="874" r="12.5" style="fill:#d33f49"/><circle cx="737" cy="52" r="12.5" style="fill:#fb8b24"/><circle cx="323" cy="113" r="12.5" style="fill:#3993dd"/><circle cx="323" cy="-5" r="12.5" style="fill:#d33f49"/><circle cx="834" cy="240" r="12.5" style="fill:#fb8b24"/><circle cx="73" cy="571" r="12.5" style="fill:#3993dd"/><circle cx="295" cy="282" r="12.5" style="fill:#fb8b24"/><circle cx="772" cy="16" r="12.5" style="fill:#d33f49"/><circle cx="952" cy="486" r="12.5" style="fill:#fb8b24"/><circle cx="565" cy="149" r="12.5" style="fill:#d33f49"/><circle cx="9" cy="887" r="12.5" style="fill:#3993dd"/><circle cx="701" cy="353" r="12.5" style="fill:#d33f49"/><circle cx="433" cy="822" r="12.5" style="fill:#fb8b24"/><circle cx="52" cy="35" r="12.5" style="fill:#d33f49"/><circle cx="266" cy="1001" r="12.5" style="fill:#fb8b24"/><circle cx="492" cy="73" r="12.5" style="fill:#d33f49"/><circle cx="779" cy="820" r="12.5" style="fill:#3993dd"/><circle cx="601" cy="304" r="12.5" style="fill:#fb8b24"/><circle cx="155" cy="279" r="12.5" style="fill:#3993dd"/><circle cx="834" cy="415" r="12.5" style="fill:#d33f49"/><circle cx="956" cy="253" r="12.5" style="fill:#fb8b24"/><circle cx="54" cy="328" r="12.5" style="fill:#d33f49"/><circle cx="395" cy="619" r="12.5" style="fill:#fb8b24"/><circle cx="620" cy="561" r="12.5" style="fill:#3993dd"/><circle cx="620" cy="652" r="12.5" style="fill:#d33f49"/><circle cx="837" cy="165" r="12.5" style="fill:#fb8b24"/><circle cx="274" cy="885" r="12.5" style="fill:#3993dd"/><circle cx="967" cy="182" r="12.5" style="fill:#3993dd"/><circle cx="16" cy="420" r="12.5" style="fill:#d33f49"/><circle cx="483" cy="26" r="12.5" style="fill:#3993dd"/><circle cx="-5" cy="388" r="12.5" style="fill:#d33f49"/><circle cx="436" cy="864" r="12.5" style="fill:#3993dd"/><circle cx="562" cy="230" r="12.5" style="fill:#fb8b24"/><circle cx="456" cy="414" r="12.5" style="fill:#3993dd"/><circle cx="368" cy="301" r="12.5" style="fill:#d33f49"/><circle cx="471" cy="678" r="12.5" style="fill:#fb8b24"/><circle cx="12" cy="26" r="12.5" style="fill:#3993dd"/><circle cx="632" cy="324" r="12.5" style="fill:#d33f49"/><circle cx="314" cy="781" r="12.5" style="fill:#fb8b24"/><circle cx="16" cy="316" r="12.5" style="fill:#3993dd"/><circle cx="699" cy="298" r="12.5" style="fill:#d33f49"/><circle cx="265" cy="555" r="12.5" style="fill:#3993dd"/><circle cx="944" cy="1005" r="12.5" style="fill:#d33f49"/><circle cx="384" cy="726" r="12.5" style="fill:#fb8b24"/><circle cx="522" cy="225" r="12.5" style="fill:#d33f49"/><circle cx="665" cy="768" r="12.5" style="fill:#fb8b24"/><circle cx="656" cy="287" r="12.5" style="fill:#3993dd"/><circle cx="232" cy="475" r="12.5" style="fill:#d33f49"/><circle cx="391" cy="383" r="12.5" style="fill:#d33f49"/><circle cx="582" cy="267" r="12.5" style="fill:#d33f49"/><circle cx="1015" cy="993" r="12.5" style="fill:#fb8b24"/><circle cx="583" cy="197" r="12.5" style="fill:#3993dd"/><circle cx="121" cy="439" r="12.5" style="fill:#d33f49"/><circle cx="174" cy="323" r="12.5" style="fill:#fb8b24"/><circle cx="808" cy="687" r="12.5" style="fill:#d33f49"/><circle cx="462" cy="188" r="12.5" style="fill:#3993dd"/><circle cx="461" cy="527" r="12.5" style="fill:#d33f49"/><circle cx="32" cy="850" r="12.5" style="fill:#fb8b24"/><circle cx="87" cy="901" r="12.5" style="fill:#d33f49"/><circle cx="583" cy="672" r="12.5" style="fill:#fb8b24"/><circle cx="732" cy="278" r="12.5" style="fill:#3993dd"/><circle cx="94" cy="405" r="12.5" style="fill:#d33f49"/><circle cx="618" cy="50" r="12.5" style="fill:#fb8b24"/><circle cx="423" cy="739" r="12.5" style="fill:#3993dd"/><circle cx="479" cy="-11" r="12.5" style="fill:#fb8b24"/><circle cx="180" cy="17" r="12.5" style="fill:#3993dd"/><circle cx="396" cy="889" r="12.5" style="fill:#d33f49"/><circle cx="93" cy="1016" r="12.5" style="fill:#fb8b24"/><circle cx="640" cy="151" r="12.5" style="fill:#3993dd"/><circle cx="1029" cy="450" r="12.5" style="fill:#d33f49"/><circle cx="374" cy="260" r="12.5" style="fill:#3993dd"/><circle cx="756" cy="975" r="12.5" style="fill:#fb8b24"/><circle cx="41" cy="462" r="12.5" style="fill:#3993dd"/><circle cx="183" cy="592" r="12.5" style="fill:#d33f49"/><circle cx="548" cy="855" r="12.5" style="fill:#fb8b24"/><circle cx="165" cy="433" r="12.5" style="fill:#3993dd"/><circle cx="607" cy="232" r="12.5" style="fill:#d33f49"/><circle cx="875" cy="656" r="12.5" style="fill:#3993dd"/><circle cx="166" cy="141" r="12.5" style="fill:#fb8b24"/><circle cx="246" cy="641" r="12.5" style="fill:#fb8b24"/><circle cx="1024" cy="711" r="12.5" style="fill:#3993dd"/><circle cx="251" cy="597" r="12.5" style="fill:#fb8b24"/><circle cx="-11" cy="682" r="12.5" style="fill:#d33f49"/><circle cx="359" cy="640" r="12.5" style="fill:#fb8b24"/><circle cx="253" cy="209" r="12.5" style="fill:#3993dd"/><circle cx="206" cy="910" r="12.5" style="fill:#d33f49"/><circle cx="398" cy="155" r="12.5" style="fill:#fb8b24"/><circle cx="220" cy="836" r="12.5" style="fill:#3993dd"/><circle cx="176" cy="981" r="12.5" style="fill:#d33f49"/><circle cx="335" cy="566" r="12.5" style="fill:#fb8b24"/><circle cx="432" cy="905" r="12.5" style="fill:#fb8b24"/><circle cx="551" cy="14" r="12.5" style="fill:#3993dd"/><circle cx="404" cy="308" r="12.5" style="fill:#d33f49"/><circle cx="847" cy="548" r="12.5" style="fill:#fb8b24"/><circle cx="703" cy="431" r="12.5" style="fill:#3993dd"/><circle cx="348" cy="156" r="12.5" style="fill:#d33f49"/><circle cx="812" cy="897" r="12.5" style="fill:#3993dd"/><circle cx="224" cy="718" r="12.5" style="fill:#d33f49"/><circle cx="760" cy="937" r="12.5" style="fill:#fb8b24"/><circle cx="210" cy="627" r="12.5" style="fill:#3993dd"/><circle cx="283" cy="813" r="12.5" style="fill:#d33f49"/><circle cx="468" cy="796" r="12.5" style="fill:#fb8b24"/><circle cx="191" cy="867" r="12.5" style="fill:#3993dd"/><circle cx="28" cy="69" r="12.5" style="fill:#d33f49"/><circle cx="899" cy="-7" r="12.5" style="fill:#fb8b24"/><circle cx="266" cy="257" r="12.5" style="fill:#3993dd"/><circle cx="844" cy="831" r="12.5" style="fill:#d33f49"/><circle cx="429" cy="999" r="12.5" style="fill:#fb8b24"/><circle cx="23" cy="214" r="12.5" style="fill:#d33f49"/><circle cx="588" cy="628" r="12.5" style="fill:#fb8b24"/><circle cx="197" cy="114" r="12.5" style="fill:#d33f49"/><circle cx="394" cy="808" r="12.5" style="fill:#fb8b24"/><circle cx="1027" cy="228" r="12.5" style="fill:#3993dd"/><circle cx="988" cy="468" r="12.5" style="fill:#d33f49"/><circle cx="45" cy="781" r="12.5" style="fill:#3993dd"/><circle cx="721" cy="94" r="12.5" style="fill:#d33f49"/><circle cx="570" cy="967" r="12.5" style="fill:#fb8b24"/><circle cx="662" cy="848" r="12.5" style="fill:#3993dd"/><circle cx="56" cy="636" r="12.5" style="fill:#d33f49"/><circle cx="661" cy="-9" r="12.5" style="fill:#fb8b24"/><circle cx="849" cy="318" r="12.5" style="fill:#3993dd"/><circle cx="168" cy="506" r="12.5" style="fill:#d33f49"/><circle cx="937" cy="63" r="12.5" style="fill:#d33f49"/><circle cx="956" cy="575" r="12.5" style="fill:#fb8b24"/><circle cx="561" cy="375" r="12.5" style="fill:#3993dd"/><circle cx="131" cy="612" r="12.5" style="fill:#d33f49"/><circle cx="98" cy="219" r="12.5" style="fill:#fb8b24"/><circle cx="783" cy="507" r="12.5" style="fill:#d33f49"/><circle cx="886" cy="476" r="12.5" style="fill:#fb8b24"/><circle cx="733" cy="872" r="12.5" style="fill:#3993dd"/><circle cx="780" cy="214" r="12.5" style="fill:#3993dd"/><circle cx="75" cy="856" r="12.5" style="fill:#d33f49"/><circle cx="818" cy="204" r="12.5" style="fill:#fb8b24"/><circle cx="271" cy="470" r="12.5" style="fill:#3993dd"/><circle cx="199" cy="358" r="12.5" style="fill:#d33f49"/><circle cx="184" cy="546" r="12.5" style="fill:#fb8b24"/><circle cx="235" cy="43" r="12.5" style="fill:#3993dd"/><circle cx="513" cy="597" r="12.5" style="fill:#d33f49"/><circle cx="278" cy="111" r="12.5" style="fill:#fb8b24"/><circle cx="1005" cy="27" r="12.5" style="fill:#d33f49"/><circle cx="655" cy="891" r="12.5" style="fill:#fb8b24"/><circle cx="304" cy="1005" r="12.5" style="fill:#3993dd"/><circle cx="733" cy="568" r="12.5" style="fill:#d33f49"/><circle cx="823" cy="722" r="12.5" style="fill:#fb8b24"/><circle cx="625" cy="268" r="12.5" style="fill:#d33f49"/><circle cx="96" cy="329" r="12.5" style="fill:#fb8b24"/><circle cx="916" cy="505" r="12.5" style="fill:#3993dd"/><circle cx="703" cy="751" r="12.5" style="fill:#d33f49"/><circle cx="61" cy="817" r="12.5" style="fill:#fb8b24"/><circle cx="883" cy="705" r="12.5" style="fill:#3993dd"/><circle cx="588" cy="876" r="12.5" style="fill:#d33f49"/><circle cx="913" cy="817" r="12.5" style="fill:#fb8b24"/><circle cx="232" cy="877" r="12.5" style="fill:#3993dd"/><circle cx="845" cy="611" r="12.5" style="fill:#d33f49"/><circle cx="527" cy="969" r="12.5" style="fill:#fb8b24"/><circle cx="925" cy="180" r="12.5" style="fill:#3993dd"/><circle cx="155" cy="46" r="12.5" style="fill:#d33f49"/><circle cx="314" cy="463" r="12.5" style="fill:#fb8b24"/><circle cx="770" cy="291" r="12.5" style="fill:#3993dd"/><circle cx="223" cy="392" r="12.5" style="fill:#d33f49"/><circle cx="293" cy="323" r="12.5" style="fill:#fb8b24"/><circle cx="552" cy="417" r="12.5" style="fill:#3993dd"/><circle cx="349" cy="755" r="12.5" style="fill:#d33f49"/><circle cx="769" cy="690" r="12.5" style="fill:#d33f49"/><circle cx="647" cy="496" r="12.5" style="fill:#d33f49"/><circle cx="533" cy="343" r="12.5" style="fill:#3993dd"/><circle cx="625" cy="776" r="12.5" style="fill:#d33f49"/><circle cx="921" cy="457" r="12.5" style="fill:#3993dd"/><circle cx="464" cy="754" r="12.5" style="fill:#d33f49"/><circle cx="92" cy="788" r="12.5" style="fill:#fb8b24"/><circle cx="418" cy="531" r="12.5" style="fill:#d33f49"/><circle cx="508" cy="807" r="12.5" style="fill:#fb8b24"/><circle cx="96" cy="44" r="12.5" style="fill:#3993dd"/><circle cx="695" cy="711" r="12.5" style="fill:#d33f49"/><circle cx="1004" cy="260" r="12.5" style="fill:#d33f49"/><circle cx="918" cy="965" r="12.5" style="fill:#fb8b24"/><circle cx="988" cy="730" r="12.5" style="fill:#d33f49"/><circle cx="519" cy="-10" r="12.5" style="fill:#fb8b24"/><circle cx="45" cy="392" r="12.5" style="fill:#d33f49"/><circle cx="246" cy="435" r="12.5" style="fill:#fb8b24"/><circle cx="439" cy="957" r="12.5" style="fill:#3993dd"/><circle cx="5" cy="533" r="12.5" style="fill:#d33f49"/><circle cx="141" cy="811" r="12.5" style="fill:#fb8b24"/><circle cx="295" cy="581" r="12.5" style="fill:#d33f49"/><circle cx="61" cy="987" r="12.5" style="fill:#3993dd"/><circle cx="106" cy="824" r="12.5" style="fill:#d33f49"/><circle cx="849" cy="919" r="12.5" style="fill:#fb8b24"/><circle cx="263" cy="397" r="12.5" style="fill:#3993dd"/><circle cx="678" cy="1003" r="12.5" style="fill:#d33f49"/><circle cx="435" cy="616" r="12.5" style="fill:#fb8b24"/><circle cx="505" cy="1000" r="12.5" style="fill:#3993dd"/><circle cx="989" cy="552" r="12.5" style="fill:#fb8b24"/><circle cx="374" cy="687" r="12.5" style="fill:#3993dd"/><circle cx="69" cy="73" r="12.5" style="fill:#d33f49"/><circle cx="780" cy="730" r="12.5" style="fill:#fb8b24"/><circle cx="851" cy="360" r="12.5" style="fill:#d33f49"/><circle cx="61" cy="532" r="12.5" style="fill:#fb8b24"/><circle cx="471" cy="838" r="12.5" style="fill:#3993dd"/><circle cx="543" cy="778" r="12.5" style="fill:#fb8b24"/><circle cx="244" cy="803" r="12.5" style="fill:#d33f49"/><circle cx="335" cy="57" r="12.5" style="fill:#fb8b24"/><circle cx="888" cy="293" r="12.5" style="fill:#d33f49"/><circle cx="692" cy="552" r="12.5" style="fill:#3993dd"/><circle cx="963" cy="34" r="12.5" style="fill:#d33f49"/><circle cx="330" cy="607" r="12.5" style="fill:#fb8b24"/><circle cx="414" cy="417" r="12.5" style="fill:#3993dd"/><circle cx="163" cy="223" r="12.5" style="fill:#d33f49"/><circle cx="365" cy="914" r="12.5" style="fill:#fb8b24"/><circle cx="375" cy="187" r="12.5" style="fill:#d33f49"/><circle cx="657" cy="730" r="12.5" style="fill:#fb8b24"/><circle cx="527" cy="146" r="12.5" style="fill:#3993dd"/><circle cx="397" cy="849" r="12.5" style="fill:#d33f49"/><circle cx="169" cy="181" r="12.5" style="fill:#fb8b24"/><circle cx="367" cy="345" r="12.5" style="fill:#3993dd"/><circle cx="1026" cy="533" r="12.5" style="fill:#d33f49"/><circle cx="722" cy="524" r="12.5" style="fill:#fb8b24"/><circle cx="884" cy="617" r="12.5" style="fill:#3993dd"/><circle cx="504" cy="187" r="12.5" style="fill:#fb8b24"/><circle cx="736" cy="717" r="12.5" style="fill:#3993dd"/><circle cx="294" cy="503" r="12.5" style="fill:#d33f49"/><circle cx="31" cy="560" r="12.5" style="fill:#fb8b24"/><circle cx="631" cy="394" r="12.5" style="fill:#3993dd"/><circle cx="137" cy="401" r="12.5" style="fill:#d33f49"/><circle cx="90" cy="135" r="12.5" style="fill:#fb8b24"/><circle cx="101" cy="531" r="12.5" style="fill:#3993dd"/><circle cx="245" cy="918" r="12.5" style="fill:#d33f49"/><circle cx="309" cy="148" r="12.5" style="fill:#3993dd"/><circle cx="902" cy="374" r="12.5" style="fill:#d33f49"/><circle cx="141" cy="532" r="12.5" style="fill:#fb8b24"/><circle cx="18" cy="129" r="12.5" style="fill:#3993dd"/><circle cx="398" cy="658" r="12.5" style="fill:#fb8b24"/><circle cx="138" cy="112" r="12.5" style="fill:#3993dd"/><circle cx="797" cy="613" r="12.5" style="fill:#d33f49"/><circle cx="833" cy="996" r="12.5" style="fill:#fb8b24"/><circle cx="481" cy="225" r="12.5" style="fill:#3993dd"/><circle cx="613" cy="521" r="12.5" style="fill:#d33f49"/><circle cx="548" cy="516" r="12.5" style="fill:#3993dd"/><circle cx="796" cy="978" r="12.5" style="fill:#d33f49"/><circle cx="802" cy="548" r="12.5" style="fill:#fb8b24"/><circle cx="898" cy="214" r="12.5" style="fill:#3993dd"/><circle cy="723" r="12.5" style="fill:#d33f49"/><circle cx="268" cy="150" r="12.5" style="fill:#fb8b24"/><circle cx="905" cy="31" r="12.5" style="fill:#3993dd"/><circle cx="74" cy="366" r="12.5" style="fill:#3993dd"/><circle cx="696" cy="29" r="12.5" style="fill:#d33f49"/><circle cx="465" cy="923" r="12.5" style="fill:#fb8b24"/><circle cx="322" cy="823" r="12.5" style="fill:#d33f49"/><circle cx="181" cy="396" r="12.5" style="fill:#fb8b24"/><circle cx="335" cy="677" r="12.5" style="fill:#3993dd"/><circle cx="742" cy="361" r="12.5" style="fill:#d33f49"/><circle cx="884" cy="895" r="12.5" style="fill:#fb8b24"/><circle cx="511" cy="640" r="12.5" style="fill:#d33f49"/><circle cx="88" cy="457" r="12.5" style="fill:#3993dd"/><circle cx="1023" cy="923" r="12.5" style="fill:#d33f49"/><circle cx="1022" cy="491" r="12.5" style="fill:#fb8b24"/><circle cx="897" cy="69" r="12.5" style="fill:#3993dd"/><circle cx="480" cy="451" r="12.5" style="fill:#d33f49"/><circle cx="578" cy="449" r="12.5" style="fill:#fb8b24"/><circle cx="-12" cy="157" r="12.5" style="fill:#d33f49"/><circle cx="334" cy="427" r="12.5" style="fill:#fb8b24"/><circle cx="657" cy="33" r="12.5" style="fill:#fb8b24"/><circle cx="99" cy="975" r="12.5" style="fill:#d33f49"/><circle cx="710" cy="176" r="12.5" style="fill:#fb8b24"/><circle cx="292" cy="964" r="12.5" style="fill:#d33f49"/><circle cx="914" cy="255" r="12.5" style="fill:#3993dd"/><circle cx="587" cy="792" r="12.5" style="fill:#d33f49"/><circle cx="761" cy="1013" r="12.5" style="fill:#fb8b24"/><circle cx="861" cy="445" r="12.5" style="fill:#3993dd"/><circle cx="131" cy="901" r="12.5" style="fill:#d33f49"/><circle cx="475" cy="113" r="12.5" style="fill:#3993dd"/><circle cx="126" cy="71" r="12.5" style="fill:#fb8b24"/><circle cx="356" cy="91" r="12.5" style="fill:#3993dd"/><circle cx="692" cy="669" r="12.5" style="fill:#3993dd"/><circle cx="50" cy="888" r="12.5" style="fill:#d33f49"/><circle cx="397" cy="1021" r="12.5" style="fill:#fb8b24"/><circle cx="253" cy="690" r="12.5" style="fill:#d33f49"/><circle cx="950" cy="743" r="12.5" style="fill:#fb8b24"/><circle cx="341" cy="717" r="12.5" style="fill:#3993dd"/><circle cx="624" cy="859" r="12.5" style="fill:#d33f49"/><circle cx="444" cy="90" r="12.5" style="fill:#3993dd"/><circle cx="258" cy="309" r="12.5" style="fill:#d33f49"/><circle cx="504" cy="927" r="12.5" style="fill:#fb8b24"/><circle cx="336" cy="498" r="12.5" style="fill:#3993dd"/><circle cx="957" cy="440" r="12.5" style="fill:#fb8b24"/><circle cx="986" cy="111" r="12.5" style="fill:#3993dd"/><circle cx="412" cy="580" r="12.5" style="fill:#d33f49"/><circle cx="384" cy="550" r="12.5" style="fill:#fb8b24"/><circle cx="126" cy="770" r="12.5" style="fill:#3993dd"/><circle cx="43" cy="-5" r="12.5" style="fill:#fb8b24"/><circle cx="55" cy="153" r="12.5" style="fill:#d33f49"/><circle cx="207" cy="431" r="12.5" style="fill:#fb8b24"/><circle cx="114" cy="864" r="12.5" style="fill:#3993dd"/><circle cx="61" cy="199" r="12.5" style="fill:#d33f49"/><circle cx="198" cy="56" r="12.5" style="fill:#fb8b24"/><circle cx="655" cy="431" r="12.5" style="fill:#d33f49"/><circle cx="520" cy="35" r="12.5" style="fill:#fb8b24"/><circle cx="317" cy="644" r="12.5" style="fill:#3993dd"/><circle cx="552" cy="895" r="12.5" style="fill:#d33f49"/><circle cx="447" cy="150" r="12.5" style="fill:#fb8b24"/><circle cx="680" cy="145" r="12.5" style="fill:#3993dd"/><circle cx="755" cy="645" r="12.5" style="fill:#d33f49"/><circle cx="673" cy="326" r="12.5" style="fill:#fb8b24"/><circle cx="146" cy="697" r="12.5" style="fill:#3993dd"/><circle cx="599" cy="1001" r="12.5" style="fill:#fb8b24"/><circle cx="982" cy="357" r="12.5" style="fill:#d33f49"/><circle cx="700" cy="834" r="12.5" style="fill:#fb8b24"/><circle cx="399" cy="13" r="12.5" style="fill:#3993dd"/><circle cx="319" cy="894" r="12.5" style="fill:#d33f49"/><circle cx="609" cy="359" r="12.5" style="fill:#3993dd"/><circle cx="833" cy="648" r="12.5" style="fill:#d33f49"/><circle cx="154" cy="737" r="12.5" style="fill:#fb8b24"/><circle cx="590" cy="401" r="12.5" style="fill:#3993dd"/><circle cx="1024" cy="849" r="12.5" style="fill:#fb8b24"/><circle cx="981" cy="772" r="12.5" style="fill:#d33f49"/><circle cx="493" cy="341" r="12.5" style="fill:#fb8b24"/><circle cx="927" cy="776" r="12.5" style="fill:#3993dd"/><circle cx="302" cy="76" r="12.5" style="fill:#d33f49"/><circle cx="876" cy="577" r="12.5" style="fill:#fb8b24"/><circle cx="239" cy="1031" r="12.5" style="fill:#3993dd"/><circle cx="128" cy="154" r="12.5" style="fill:#fb8b24"/><circle cx="558" cy="303" r="12.5" style="fill:#3993dd"/><circle cx="508" cy="483" r="12.5" style="fill:#d33f49"/><circle cx="824" cy="35" r="12.5" style="fill:#3993dd"/><circle cx="517" cy="108" r="12.5" style="fill:#d33f49"/><circle cx="186" cy="706" r="12.5" style="fill:#fb8b24"/><circle cx="204" cy="203" r="12.5" style="fill:#3993dd"/><circle cx="307" cy="395" r="12.5" style="fill:#fb8b24"/><circle cx="282" cy="663" r="12.5" style="fill:#3993dd"/><circle cx="761" cy="248" r="12.5" style="fill:#d33f49"/><circle cx="739" cy="833" r="12.5" style="fill:#fb8b24"/><circle cx="351" cy="531" r="12.5" style="fill:#3993dd"/><circle cx="151" cy="855" r="12.5" style="fill:#fb8b24"/><circle cx="733" cy="321" r="12.5" style="fill:#3993dd"/><circle cx="70" cy="943" r="12.5" style="fill:#d33f49"/><circle cx="625" cy="5" r="12.5" style="fill:#fb8b24"/><circle cx="576" cy="338" r="12.5" style="fill:#3993dd"/><circle cx="498" cy="414" r="12.5" style="fill:#d33f49"/><circle cx="26" cy="359" r="12.5" style="fill:#3993dd"/><circle cx="725" cy="911" r="12.5" style="fill:#fb8b24"/><circle cx="161" cy="1027" r="12.5" style="fill:#3993dd"/><circle cx="456" cy="713" r="12.5" style="fill:#d33f49"/><circle cx="436" cy="659" r="12.5" style="fill:#fb8b24"/><circle cx="305" cy="31" r="12.5" style="fill:#3993dd"/><circle cx="465" cy="489" r="12.5" style="fill:#d33f49"/><circle cx="179" cy="666" r="12.5" style="fill:#fb8b24"/><circle cx="902" cy="1000" r="12.5" style="fill:#3993dd"/><circle cx="720" cy="135" r="12.5" style="fill:#d33f49"/><circle cx="508" cy="682" r="12.5" style="fill:#d33f49"/><circle cx="909" cy="733" r="12.5" style="fill:#fb8b24"/><circle cx="234" cy="759" r="12.5" style="fill:#3993dd"/><circle cx="398" cy="224" r="12.5" style="fill:#d33f49"/><circle cx="680" cy="106" r="12.5" style="fill:#fb8b24"/><circle cx="34" cy="501" r="12.5" style="fill:#3993dd"/><circle cx="1012" cy="388" r="12.5" style="fill:#d33f49"/><circle cx="418" cy="51" r="12.5" style="fill:#fb8b24"/><circle cx="748" cy="407" r="12.5" style="fill:#3993dd"/><circle cy="243" r="12.5" style="fill:#fb8b24"/><circle cx="482" cy="962" r="12.5" style="fill:#d33f49"/><circle cx="113" cy="571" r="12.5" style="fill:#fb8b24"/><circle cx="112" cy="730" r="12.5" style="fill:#3993dd"/><circle cx="666" cy="185" r="12.5" style="fill:#d33f49"/><circle cx="227" cy="238" r="12.5" style="fill:#fb8b24"/><circle cx="219" cy="322" r="12.5" style="fill:#3993dd"/><circle cx="270" cy="25" r="12.5" style="fill:#d33f49"/><circle cx="287" cy="923" r="12.5" style="fill:#3993dd"/><circle cx="836" cy="954" r="12.5" style="fill:#3993dd"/><circle cx="409" cy="346" r="12.5" style="fill:#d33f49"/><circle cx="137" cy="657" r="12.5" style="fill:#3993dd"/><circle cx="918" cy="558" r="12.5" style="fill:#d33f49"/><circle cx="786" cy="417" r="12.5" style="fill:#fb8b24"/><circle cx="421" cy="187" r="12.5" style="fill:#3993dd"/><circle cx="999" cy="954" r="12.5" style="fill:#3993dd"/><circle cx="266" cy="729" r="12.5" style="fill:#d33f49"/><circle cx="692" cy="67" r="12.5" style="fill:#fb8b24"/><circle cx="747" cy="446" r="12.5" style="fill:#3993dd"/><circle cx="299" cy="700" r="12.5" style="fill:#fb8b24"/><circle cx="858" cy="206" r="12.5" style="fill:#3993dd"/><circle cx="792" cy="650" r="12.5" style="fill:#fb8b24"/><circle cx="115" cy="366" r="12.5" style="fill:#d33f49"/><circle cx="372" cy="125" r="12.5" style="fill:#fb8b24"/><circle cx="939" cy="703" r="12.5" style="fill:#3993dd"/><circle cx="954" cy="142" r="12.5" style="fill:#d33f49"/><circle cx="638" cy="112" r="12.5" style="fill:#fb8b24"/><circle cx="957" cy="659" r="12.5" style="fill:#3993dd"/><circle cx="282" cy="361" r="12.5" style="fill:#d33f49"/><circle cx="205" cy="156" r="12.5" style="fill:#fb8b24"/><circle cx="807" r="12.5" style="fill:#d33f49"/><circle cx="106" cy="690" r="12.5" style="fill:#fb8b24"/><circle cx="997" cy="812" r="12.5" style="fill:#3993dd"/><circle cx="811" cy="446" r="12.5" style="fill:#d33f49"/><circle cx="985" cy="512" r="12.5" style="fill:#fb8b24"/><circle cx="210" cy="951" r="12.5" style="fill:#d33f49"/><circle cx="663" cy="807" r="12.5" style="fill:#fb8b24"/><circle cx="608" cy="957" r="12.5" style="fill:#3993dd"/><circle cx="984" cy="222" r="12.5" style="fill:#d33f49"/><circle cx="578" cy="544" r="12.5" style="fill:#fb8b24"/><circle cx="399" cy="89" r="12.5" style="fill:#3993dd"/><circle cx="812" cy="339" r="12.5" style="fill:#d33f49"/><circle cx="847" cy="279" r="12.5" style="fill:#3993dd"/><circle cx="2" cy="776" r="12.5" style="fill:#d33f49"/><circle cx="618" cy="696" r="12.5" style="fill:#fb8b24"/><circle cx="858" cy="6" r="12.5" style="fill:#3993dd"/><circle cx="884" cy="336" r="12.5" style="fill:#3993dd"/><circle cx="353" cy="20" r="12.5" style="fill:#d33f49"/><circle cx="1029" cy="574" r="12.5" style="fill:#fb8b24"/><circle cx="862" cy="507" r="12.5" style="fill:#3993dd"/><circle cx="140" cy="959" r="12.5" style="fill:#fb8b24"/><circle cx="889" cy="535" r="12.5" style="fill:#3993dd"/><circle cx="958" cy="618" r="12.5" style="fill:#d33f49"/></svg>